<?xml version="1.0" encoding="utf-8"?>
<!-- Generator: Adobe Illustrator 19.0.0, SVG Export Plug-In . SVG Version: 6.00 Build 0)  -->
<svg version="1.1" id="Capa_1" xmlns="http://www.w3.org/2000/svg" xmlns:xlink="http://www.w3.org/1999/xlink" x="0px" y="0px"
	 viewBox="-355 141 512 512" style="enable-background:new -355 141 512 512;" xml:space="preserve">
<g>
	<g>
		<path d="M15.7,542.4c-22.9,0-41.7,18.8-41.7,41.7s18.8,41.7,41.7,41.7s41.7-18.8,41.7-41.7C57.4,561.2,38.6,542.4,15.7,542.4z
			 M36.5,584.1c0,11.5-9.4,20.9-20.9,20.9s-20.9-9.4-20.9-20.9s9.4-20.9,20.9-20.9C28.2,563.3,37.6,572.7,36.5,584.1z"/>
		<path d="M-130.3,542.4c-22.9,0-41.7,18.8-41.7,41.7s18.8,41.7,41.7,41.7s41.7-18.8,41.7-41.7C-88.6,561.2-107.3,542.4-130.3,542.4
			z M-130.3,605c-11.5,0-20.9-9.4-20.9-20.9s9.4-20.9,20.9-20.9s20.9,9.4,20.9,20.9S-118.8,605-130.3,605z"/>
		<path d="M52.1,302.6c4.1-10.9,6.3-22.6,6.3-34.9c0-55-44.6-99.6-99.6-99.6s-99.6,44.6-99.6,99.6c0,12.3,2.2,24.1,6.3,34.9H-208
			l-39-133.4h-97V189h81.3l92.8,315.9H61.5L146,302.6H52.1z M-41.1,189c43.5,0,78.7,35.2,78.7,78.7s-35.2,78.7-78.7,78.7
			s-78.7-35.2-78.7-78.7C-119.9,224.3-84.6,189-41.1,189z M48,484.1h-203.3L-202,323.5h78.3c17.9,26.4,48.2,43.8,82.5,43.8
			s64.6-17.4,82.5-43.8h73.4L48,484.1z"/>
		<polygon points="-51,315.2 -30.2,315.2 -30.2,278.7 6.3,278.7 6.3,257.8 -30.2,257.8 -30.2,220.3 -51,220.3 -51,257.8 
			-88.6,257.8 -88.6,278.7 -51,278.7 		"/>
	</g>
</g>
</svg>
