<?xml version="1.0" encoding="utf-8"?>
<!-- Generator: Adobe Illustrator 19.0.0, SVG Export Plug-In . SVG Version: 6.00 Build 0)  -->
<svg version="1.1" id="Capa_1" xmlns="http://www.w3.org/2000/svg" xmlns:xlink="http://www.w3.org/1999/xlink" x="0px" y="0px"
	 viewBox="0 0 300 300" style="enable-background:new 0 0 300 300;" xml:space="preserve">
<style type="text/css">
	.st0{fill:#030104;stroke:#FFFFFF;stroke-width:1.7739;stroke-miterlimit:10;}
	.st1{fill:none;stroke:#030104;stroke-width:2;stroke-miterlimit:10;}
</style>
<g id="XMLID_149_">
	<g id="XMLID_158_">
		<path id="XMLID_159_" class="st0" d="M170.6,91.9h-41.3c-4.1,0-7.5,3.4-7.5,7.5c-4.1,0-7.5,3.4-7.5,7.5l0,0l0,0
			c-4.1,0-7.5,3.4-7.5,7.5v86.3c0,4.1,3.4,7.5,7.5,7.5h56.3c4.1,0,7.5-3.4,7.5-7.5c4.1,0,7.5-3.4,7.5-7.5c4.1,0,7.5-3.4,7.5-7.5V120
			v-1.9L170.6,91.9z M170.6,97.5l17.6,20.6h-13.9c-1.9,0-3.8-1.9-3.8-3.8V97.5z M170.6,204.4h-56.3c-1.9,0-3.8-1.5-3.8-3.8v-86.3
			c0-1.9,1.5-3.8,3.8-3.8l0,0v82.5c0,4.1,3.4,7.5,7.5,7.5h52.5C174.4,202.5,172.9,204.4,170.6,204.4z M181.9,193.1
			c0,1.9-1.5,3.8-3.8,3.8h-56.3c-1.9,0-3.8-1.5-3.8-3.8v-86.3c0-1.9,1.5-3.8,3.8-3.8l0,0v82.5c0,4.1,3.4,7.5,7.5,7.5H181.9
			L181.9,193.1z M189.4,185.6c0,1.9-1.5,3.8-3.8,3.8h-56.3c-1.9,0-3.8-1.5-3.8-3.8V99.4c0-1.9,1.5-3.8,3.8-3.8h37.5v18.8
			c0,4.1,3.4,7.5,7.5,7.5h15V185.6z"/>
	</g>
	<circle id="XMLID_156_" class="st1" cx="150" cy="150" r="99.6"/>
</g>
</svg>
