<?xml version="1.0" encoding="utf-8"?>
<!-- Generator: Adobe Illustrator 19.0.0, SVG Export Plug-In . SVG Version: 6.00 Build 0)  -->
<svg version="1.1" id="Capa_1" xmlns="http://www.w3.org/2000/svg" xmlns:xlink="http://www.w3.org/1999/xlink" x="0px" y="0px"
	 viewBox="0 0 323 386" style="enable-background:new 0 0 323 386;" xml:space="preserve">
<style type="text/css">
	.st0{fill:#030104;}
</style>
<g id="XMLID_2_">
	<g id="XMLID_57_">
		<g id="XMLID_58_">
			<path id="XMLID_59_" class="st0" d="M243,244.2c-26.6,0-48.2,21.6-48.2,48.2c0,26.6,21.6,48.2,48.2,48.2
				c26.6,0,48.2-21.6,48.2-48.2S269.6,244.2,243,244.2z M243,330c-20.7,0-37.5-16.8-37.5-37.5c0-20.7,16.8-37.5,37.5-37.5
				c20.7,0,37.5,16.8,37.5,37.5S263.7,330,243,330z"/>
		</g>
	</g>
	<g id="XMLID_54_">
		<g id="XMLID_55_">
			<path id="XMLID_56_" class="st0" d="M267.9,272.3c-2.3-1.9-5.7-1.6-7.5,0.7l-23,27.6l-11.9-11.9c-2.1-2.1-5.5-2.1-7.6,0
				c-2.1,2.1-2.1,5.5,0,7.6l16.1,16.1c1,1,2.4,1.6,3.8,1.6c0.1,0,0.2,0,0.2,0c1.5-0.1,2.9-0.8,3.9-1.9l26.8-32.2
				C270.5,277.5,270.2,274.2,267.9,272.3z"/>
		</g>
	</g>
	<g id="XMLID_51_">
		<g id="XMLID_52_">
			<path id="XMLID_53_" class="st0" d="M243,51.3H50.1c-3,0-5.4,2.4-5.4,5.4v268c0,1.9,1,3.7,2.7,4.7c1.7,1,3.7,0.9,5.4-0.1
				L76.6,315l18.6,13.9c1.7,1.3,4.1,1.4,6,0.3l23.7-14.2l18.6,13.9c1,0.7,2.1,1.1,3.2,1.1c1,0,1.9-0.3,2.8-0.8l26.8-16.1
				c2.5-1.5,3.4-4.8,1.8-7.4c-1.5-2.5-4.8-3.4-7.4-1.8l-23.7,14.2l-18.6-13.9c-1.7-1.3-4.1-1.4-6-0.3l-23.7,14.2l-18.6-13.9
				c-1.7-1.3-4.1-1.4-6-0.3l-18.7,11.2V62h182.2v166.1c0,3,2.4,5.4,5.4,5.4s5.4-2.4,5.4-5.4V56.7C248.4,53.7,246,51.3,243,51.3z"/>
		</g>
	</g>
	<g id="XMLID_48_">
		<g id="XMLID_49_">
			<path id="XMLID_50_" class="st0" d="M103.7,99.5H76.9c-3,0-5.4,2.4-5.4,5.4s2.4,5.4,5.4,5.4h26.8c3,0,5.4-2.4,5.4-5.4
				S106.6,99.5,103.7,99.5z"/>
		</g>
	</g>
	<g id="XMLID_45_">
		<g id="XMLID_46_">
			<path id="XMLID_47_" class="st0" d="M205.5,126.3h-26.8c-3,0-5.4,2.4-5.4,5.4c0,3,2.4,5.4,5.4,5.4h26.8c3,0,5.4-2.4,5.4-5.4
				C210.9,128.7,208.5,126.3,205.5,126.3z"/>
		</g>
	</g>
	<g id="XMLID_42_">
		<g id="XMLID_43_">
			<path id="XMLID_44_" class="st0" d="M205.5,153.1h-26.8c-3,0-5.4,2.4-5.4,5.4c0,3,2.4,5.4,5.4,5.4h26.8c3,0,5.4-2.4,5.4-5.4
				C210.9,155.5,208.5,153.1,205.5,153.1z"/>
		</g>
	</g>
	<g id="XMLID_39_">
		<g id="XMLID_40_">
			<path id="XMLID_41_" class="st0" d="M205.5,179.9h-26.8c-3,0-5.4,2.4-5.4,5.4c0,3,2.4,5.4,5.4,5.4h26.8c3,0,5.4-2.4,5.4-5.4
				C210.9,182.3,208.5,179.9,205.5,179.9z"/>
		</g>
	</g>
	<g id="XMLID_36_">
		<g id="XMLID_37_">
			<path id="XMLID_38_" class="st0" d="M205.5,206.7h-26.8c-3,0-5.4,2.4-5.4,5.4c0,3,2.4,5.4,5.4,5.4h26.8c3,0,5.4-2.4,5.4-5.4
				C210.9,209.1,208.5,206.7,205.5,206.7z"/>
		</g>
	</g>
	<g id="XMLID_33_">
		<g id="XMLID_34_">
			<path id="XMLID_35_" class="st0" d="M205.5,233.5h-26.8c-3,0-5.4,2.4-5.4,5.4s2.4,5.4,5.4,5.4h26.8c3,0,5.4-2.4,5.4-5.4
				S208.5,233.5,205.5,233.5z"/>
		</g>
	</g>
	<g id="XMLID_30_">
		<g id="XMLID_31_">
			<path id="XMLID_32_" class="st0" d="M151.9,126.3h-75c-3,0-5.4,2.4-5.4,5.4c0,3,2.4,5.4,5.4,5.4h75c3,0,5.4-2.4,5.4-5.4
				C157.3,128.7,154.9,126.3,151.9,126.3z"/>
		</g>
	</g>
	<g id="XMLID_27_">
		<g id="XMLID_28_">
			<path id="XMLID_29_" class="st0" d="M151.9,153.1h-75c-3,0-5.4,2.4-5.4,5.4c0,3,2.4,5.4,5.4,5.4h75c3,0,5.4-2.4,5.4-5.4
				C157.3,155.5,154.9,153.1,151.9,153.1z"/>
		</g>
	</g>
	<g id="XMLID_24_">
		<g id="XMLID_25_">
			<path id="XMLID_26_" class="st0" d="M151.9,179.9h-75c-3,0-5.4,2.4-5.4,5.4c0,3,2.4,5.4,5.4,5.4h75c3,0,5.4-2.4,5.4-5.4
				C157.3,182.3,154.9,179.9,151.9,179.9z"/>
		</g>
	</g>
	<g id="XMLID_21_">
		<g id="XMLID_22_">
			<path id="XMLID_23_" class="st0" d="M151.9,206.7h-75c-3,0-5.4,2.4-5.4,5.4c0,3,2.4,5.4,5.4,5.4h75c3,0,5.4-2.4,5.4-5.4
				C157.3,209.1,154.9,206.7,151.9,206.7z"/>
		</g>
	</g>
	<g id="XMLID_18_">
		<g id="XMLID_19_">
			<path id="XMLID_20_" class="st0" d="M151.9,233.5h-75c-3,0-5.4,2.4-5.4,5.4s2.4,5.4,5.4,5.4h75c3,0,5.4-2.4,5.4-5.4
				S154.9,233.5,151.9,233.5z"/>
		</g>
	</g>
	<g id="XMLID_17_">
	</g>
	<g id="XMLID_16_">
	</g>
	<g id="XMLID_15_">
	</g>
	<g id="XMLID_14_">
	</g>
	<g id="XMLID_13_">
	</g>
	<g id="XMLID_12_">
	</g>
	<g id="XMLID_11_">
	</g>
	<g id="XMLID_10_">
	</g>
	<g id="XMLID_9_">
	</g>
	<g id="XMLID_8_">
	</g>
	<g id="XMLID_7_">
	</g>
	<g id="XMLID_6_">
	</g>
	<g id="XMLID_5_">
	</g>
	<g id="XMLID_4_">
	</g>
	<g id="XMLID_3_">
	</g>
</g>
</svg>
