<?xml version="1.0" encoding="utf-8"?>
<!-- Generator: Adobe Illustrator 19.0.0, SVG Export Plug-In . SVG Version: 6.00 Build 0)  -->
<svg version="1.1" id="Capa_1" xmlns="http://www.w3.org/2000/svg" xmlns:xlink="http://www.w3.org/1999/xlink" x="0px" y="0px"
	 viewBox="0 0 300 300" style="enable-background:new 0 0 300 300;" xml:space="preserve">
<style type="text/css">
	.st0{fill:none;stroke:#030104;stroke-width:2;stroke-miterlimit:10;}
	.st1{fill:#030104;stroke:#FFFFFF;stroke-width:1.7739;stroke-miterlimit:10;}
</style>
<g id="XMLID_1_">
	<circle id="XMLID_791_" class="st0" cx="150" cy="150" r="99.6"/>
	<g id="XMLID_155_">
		<g id="XMLID_156_">
			<path id="XMLID_788_" class="st1" d="M123.8,168.2h12.1v-12.1h-12.1V168.2z M127.8,160.1h4v4h-4V160.1z"/>
			<path id="XMLID_785_" class="st1" d="M123.8,188.3h12.1v-12.1h-12.1V188.3z M127.8,180.3h4v4h-4V180.3z"/>
			<rect id="XMLID_784_" x="143.9" y="139.9" class="st1" width="32.3" height="4"/>
			<path id="XMLID_165_" class="st1" d="M164.1,95.5h-2h-42.4c-4.4,0-8.1,3.6-8.1,8.1v92.8c0,4.4,3.6,8.1,8.1,8.1h60.5
				c4.4,0,8.1-3.6,8.1-8.1v-70.6v-2L164.1,95.5z M164.1,101.6l19,22.2h-14.9c-2,0-4-2-4-4V101.6z M184.3,196.4c0,2-1.6,4-4,4h-60.5
				c-2,0-4-1.6-4-4v-92.8c0-2,1.6-4,4-4h40.4v20.2c0,4.4,3.6,8.1,8.1,8.1h16.1V196.4z"/>
			<rect id="XMLID_164_" x="143.9" y="160.1" class="st1" width="32.3" height="4"/>
			<rect id="XMLID_162_" x="143.9" y="180.3" class="st1" width="32.3" height="4"/>
			<path id="XMLID_158_" class="st1" d="M123.8,148h12.1v-12.1h-12.1V148z M127.8,139.9h4v4h-4V139.9z"/>
		</g>
	</g>
</g>
</svg>
