<?xml version="1.0" encoding="utf-8"?>
<!-- Generator: Adobe Illustrator 19.1.0, SVG Export Plug-In . SVG Version: 6.00 Build 0)  -->
<svg version="1.1" id="Capa_1" xmlns="http://www.w3.org/2000/svg" xmlns:xlink="http://www.w3.org/1999/xlink" x="0px" y="0px"
	 viewBox="0 0 56.3 104.6" style="enable-background:new 0 0 56.3 104.6;" xml:space="preserve">
<style type="text/css">
	.st0{fill:#202020;}
	.st1{fill:#FFFFFF;}
	.st2{fill:#FFFF3C;}
	.st3{fill:none;stroke:#E3CD48;stroke-miterlimit:10;}
	.st4{fill:#E3CD48;}
	.st5{fill:#5B5915;}
	.st6{fill:#46301D;}
	.st7{fill:#7D5D2C;}
	.st8{fill:#B08C3E;}
	.st9{fill:#DCAD43;}
	.st10{fill:none;stroke:#000000;stroke-miterlimit:10;}
</style>
<g>
	
		<rect x="36.1" y="47.8" transform="matrix(0.8385 0.5449 -0.5449 0.8385 39.3608 -13.6148)" class="st5" width="13.2" height="23.6"/>
	<path class="st0" d="M54.1,88v16.8H0l0-14.1c16-26.2,25.6-42.5,28.6-48.7c3-6.2,4.5-11.1,4.5-14.6c0-2.7-0.5-4.7-1.4-6
		c-0.9-1.3-2.3-2-4.2-2c-1.9,0-3.3,0.7-4.2,2.2C22.5,23.1,22,26,22,30.4v9.4H0v-3.6c0-5.5,0.3-9.9,0.9-13.1c0.6-3.2,2-6.3,4.2-9.4
		c2.2-3.1,5.1-5.4,8.7-7c3.6-1.6,7.9-2.4,12.9-2.4c9.8,0,17.2,2.4,22.2,7.3c5,4.9,7.5,11,7.5,18.4c0,5.6-1.4,11.6-4.2,17.9
		C49.3,54.2,41,67.6,27.2,88H54.1z"/>
	<polygon class="st4" points="41.7,73.1 32.7,55.2 35.7,50.6 54.6,53.3 	"/>
</g>
</svg>
