<?xml version="1.0" encoding="utf-8"?>
<!-- Generator: Adobe Illustrator 19.1.0, SVG Export Plug-In . SVG Version: 6.00 Build 0)  -->
<svg version="1.1" id="Capa_1" xmlns="http://www.w3.org/2000/svg" xmlns:xlink="http://www.w3.org/1999/xlink" x="0px" y="0px"
	 viewBox="0 0 61.4 102.4" style="enable-background:new 0 0 61.4 102.4;" xml:space="preserve">
<style type="text/css">
	.st0{fill:#202020;}
	.st1{fill:#FFFFFF;}
	.st2{fill:#FFFF3C;}
	.st3{fill:none;stroke:#E3CD48;stroke-miterlimit:10;}
	.st4{fill:#E3CD48;}
	.st5{fill:#5B5915;}
	.st6{fill:#46301D;}
	.st7{fill:#7D5D2C;}
	.st8{fill:#B08C3E;}
	.st9{fill:#DCAD43;}
	.st10{fill:none;stroke:#000000;stroke-miterlimit:10;}
</style>
<g>
	
		<rect x="48.2" y="57" transform="matrix(1 -1.854622e-03 1.854622e-03 1 -0.1275 0.1017)" class="st5" width="13.2" height="23.6"/>
	<path class="st0" d="M46.9,44.6c3.7,1.3,6.5,3.3,8.3,6.2c1.8,2.9,2.7,9.6,2.7,20.1c0,7.8-0.9,13.9-2.7,18.2
		c-1.8,4.3-4.9,7.6-9.2,9.9c-4.4,2.3-10,3.4-16.9,3.4c-7.8,0-13.9-1.3-18.3-3.9c-4.4-2.6-7.4-5.8-8.8-9.6C0.7,85.1,0,78.5,0,69.1
		v-7.8h24.6v16c0,4.3,0.3,7,0.8,8.1c0.5,1.2,1.6,1.7,3.4,1.7c1.9,0,3.2-0.7,3.8-2.2c0.6-1.5,0.9-5.3,0.9-11.4v-6.8
		c0-3.8-0.4-6.5-1.3-8.3c-0.9-1.7-2.1-2.9-3.8-3.4c-1.7-0.5-4.9-0.9-9.7-0.9V39.8c5.8,0,9.5-0.2,10.8-0.7c1.4-0.4,2.4-1.4,3-2.9
		c0.6-1.5,0.9-3.9,0.9-7.1v-5.5c0-3.4-0.4-5.7-1.1-6.8c-0.7-1.1-1.8-1.6-3.3-1.6c-1.7,0-2.9,0.6-3.5,1.7c-0.6,1.2-0.9,3.6-0.9,7.4
		v8.1H0V24C0,14.6,2.1,8.3,6.5,5C10.8,1.7,17.6,0,27,0c11.7,0,19.7,2.3,23.9,6.9c4.2,4.6,6.3,10.9,6.3,19.1c0,5.5-0.8,9.5-2.3,12
		C53.3,40.4,50.7,42.6,46.9,44.6"/>
	<polygon class="st4" points="61.4,80.5 44.1,70.5 44.1,65 61.3,57 	"/>
</g>
</svg>
