<?xml version="1.0" encoding="utf-8"?>
<!-- Generator: Adobe Illustrator 19.1.0, SVG Export Plug-In . SVG Version: 6.00 Build 0)  -->
<svg version="1.1" id="Capa_1" xmlns="http://www.w3.org/2000/svg" xmlns:xlink="http://www.w3.org/1999/xlink" x="0px" y="0px"
	 viewBox="0 0 61.1 100.3" style="enable-background:new 0 0 61.1 100.3;" xml:space="preserve">
<style type="text/css">
	.st0{fill:#202020;}
	.st1{fill:#FFFFFF;}
	.st2{fill:#FFFF3C;}
	.st3{fill:none;stroke:#E3CD48;stroke-miterlimit:10;}
	.st4{fill:#E3CD48;}
	.st5{fill:#5B5915;}
	.st6{fill:#46301D;}
	.st7{fill:#7D5D2C;}
	.st8{fill:#B08C3E;}
	.st9{fill:#DCAD43;}
	.st10{fill:none;stroke:#000000;stroke-miterlimit:10;}
</style>
<g>
	
		<rect x="0" y="11.6" transform="matrix(-1 1.930630e-03 -1.930630e-03 -1 13.2443 46.7643)" class="st5" width="13.2" height="23.6"/>
	<path class="st0" d="M56.4,0v15.8H25.9v16.7c3.8-4.5,8.7-6.8,14.7-6.8c6.8,0,11.9,1.9,15.4,5.7c3.5,3.8,5.2,11.1,5.2,21.9v14.1
		c0,7-0.3,12.1-1,15.4c-0.7,3.3-2.1,6.3-4.3,9.1c-2.2,2.8-5.2,4.9-9.2,6.4c-3.9,1.5-8.7,2.2-14.3,2.2c-6.3,0-11.9-1.1-16.7-3.3
		c-4.8-2.2-8.3-5.5-10.3-9.9c-2-4.4-3-11.2-3-20.3v-5.4h24.6v6.1c0,6.4,0.2,10.9,0.7,13.6c0.4,2.7,2,4,4.6,4c1.2,0,2.2-0.4,3-1.2
		c0.8-0.8,1.2-1.6,1.2-2.5c0.1-0.9,0.1-4.8,0.2-11.6V50.4c0-3.7-0.4-6.2-1.2-7.5c-0.8-1.3-2-2-3.8-2c-1.1,0-2.1,0.3-2.9,1
		c-0.8,0.7-1.3,1.4-1.5,2.2c-0.2,0.8-0.3,2.6-0.3,5.5H2.6L3.6,0H56.4z"/>
	<polygon class="st4" points="0,11.6 17.3,21.6 17.3,27.2 0,35.2 	"/>
</g>
</svg>
