<?xml version="1.0" encoding="utf-8"?>
<!-- Generator: Adobe Illustrator 19.1.0, SVG Export Plug-In . SVG Version: 6.00 Build 0)  -->
<svg version="1.1" id="Capa_1" xmlns="http://www.w3.org/2000/svg" xmlns:xlink="http://www.w3.org/1999/xlink" x="0px" y="0px"
	 viewBox="0 0 64.7 102.4" style="enable-background:new 0 0 64.7 102.4;" xml:space="preserve">
<style type="text/css">
	.st0{fill:#202020;}
	.st1{fill:#FFFFFF;}
	.st2{fill:#FFFF3C;}
	.st3{fill:none;stroke:#E3CD48;stroke-miterlimit:10;}
	.st4{fill:#E3CD48;}
	.st5{fill:#5B5915;}
	.st6{fill:#46301D;}
	.st7{fill:#7D5D2C;}
	.st8{fill:#B08C3E;}
	.st9{fill:#DCAD43;}
	.st10{fill:none;stroke:#000000;stroke-miterlimit:10;}
</style>
<g>
	
		<rect x="51.5" y="61.5" transform="matrix(1 -1.786214e-03 1.786214e-03 1 -0.1307 0.1039)" class="st5" width="13.2" height="23.6"/>
	<path class="st0" d="M59,28.1H34.4c0-4.6-0.1-7.5-0.2-8.7c-0.1-1.2-0.6-2.2-1.5-3c-0.9-0.8-2.1-1.2-3.6-1.2c-1.3,0-2.3,0.4-3.1,1.2
		c-0.8,0.8-1.3,1.8-1.4,3c-0.1,1.2-0.2,3.7-0.2,7.4v15.7c1.3-2.6,3.1-4.6,5.5-5.9c2.4-1.3,5.4-2,9-2c4.5,0,8.5,1.2,11.9,3.7
		c3.4,2.4,5.6,5.4,6.6,8.8c0.9,3.4,1.4,8,1.4,13.8v7.8c0,6.9-0.3,12-0.8,15.4c-0.5,3.4-1.9,6.5-4.2,9.3c-2.3,2.9-5.4,5.1-9.4,6.7
		c-4,1.6-8.7,2.4-14,2.4c-6.6,0-12-0.9-16.2-2.7c-4.2-1.8-7.5-4.5-9.8-7.9c-2.3-3.4-3.6-7-4-10.8C0.2,77.2,0,69.8,0,59V45.3
		c0-11.7,0.2-19.6,0.5-23.5c0.3-4,1.8-7.7,4.2-11.2c2.5-3.5,5.9-6.2,10.1-7.9C19.2,0.9,24.1,0,29.7,0c6.9,0,12.6,1.1,17,3.3
		c4.4,2.2,7.6,5.4,9.5,9.4C58.1,16.8,59,22,59,28.1 M34.4,58.8c0-3.5-0.4-5.9-1.2-7.2c-0.8-1.3-2-1.9-3.8-1.9c-1.7,0-3,0.6-3.7,1.9
		c-0.8,1.2-1.2,3.7-1.2,7.3v17.8c0,4.3,0.4,7.2,1.1,8.5c0.8,1.3,2,2,3.7,2c1.1,0,2.2-0.5,3.3-1.6c1.1-1,1.7-3.8,1.7-8.4V58.8z"/>
	<polygon class="st4" points="64.7,85 47.4,75 47.3,69.5 64.6,61.5 	"/>
</g>
</svg>
