<?xml version="1.0" encoding="utf-8"?>
<!-- Generator: Adobe Illustrator 19.1.0, SVG Export Plug-In . SVG Version: 6.00 Build 0)  -->
<svg version="1.1" id="Capa_1" xmlns="http://www.w3.org/2000/svg" xmlns:xlink="http://www.w3.org/1999/xlink" x="0px" y="0px"
	 viewBox="0 0 172.5 172.5" style="enable-background:new 0 0 172.5 172.5;" xml:space="preserve">
<style type="text/css">
	.st0{fill:#202020;}
	.st1{fill:#FFFFFF;}
	.st2{fill:#FFFF3C;}
	.st3{fill:none;stroke:#E3CD48;stroke-miterlimit:10;}
	.st4{fill:#E3CD48;}
	.st5{fill:#5B5915;}
	.st6{fill:#46301D;}
	.st7{fill:#7D5D2C;}
	.st8{fill:#B08C3E;}
	.st9{fill:#DCAD43;}
	.st10{fill:none;stroke:#000000;stroke-miterlimit:10;}
</style>
<path class="st4" d="M86.2,0C38.7,0,0,38.7,0,86.2c0,24.1,10.2,47.2,28,63.5l1.6,1.5l0,0l1.1,0.9c0.1,0,0.1,0.1,0.2,0.1
	c0.1,0.1,0.3,0.2,0.4,0.3c1.4,1.1,2.9,2.3,4.6,3.5c0.5,0.4,1,0.7,1.5,1.1c1.6,1.1,3.4,2.2,5.2,3.3c0.3,0.2,0.7,0.4,1,0.6l0.1,0.1
	c2,1.1,4,2.2,5.9,3.1l0.4,0.2c6.6,3.1,13.6,5.3,20.9,6.6l0.6,0.1c2.4,0.4,4.7,0.7,6.9,0.9l0.9,0.1c2.6,0.2,4.8,0.3,7,0.3
	c2.1,0,4.4-0.1,7-0.3l0.9-0.1c2.2-0.2,4.5-0.5,6.8-0.9l0.6-0.1c7.1-1.3,14-3.4,20.6-6.4l0.7-0.3c1.9-0.9,3.8-1.9,5.7-2.9
	c0.5-0.3,0.9-0.5,1.4-0.8c1.8-1.1,3.4-2.1,5-3.1c0.5-0.3,0.9-0.6,1.3-1l0.4-0.3c1.5-1.1,2.8-2.1,4-3.1c0.2-0.1,0.3-0.3,0.5-0.4
	c0.1-0.1,0.3-0.2,0.4-0.3l1.1-0.9l0,0l1.7-1.5c18-16.3,28.2-39.6,28.2-63.8C172.5,38.7,133.8,0,86.2,0z M136.5,153.3
	c-0.2,0.2-0.5,0.4-0.7,0.5l-0.3,0.2c-1.2,0.8-2.3,1.7-3.5,2.4l-0.2,0.1c-0.5,0.3-0.9,0.6-1.4,0.9c-1.6,1-3.2,1.9-4.7,2.7
	c-0.2,0.1-0.4,0.2-0.7,0.3l-0.4,0.2c-3.8,1.9-7.6,3.6-11.5,4.9l-0.4,0.1c-2.1,0.7-4.2,1.3-6.2,1.8l-0.3,0.1c-2,0.5-4.1,0.9-6.2,1.3
	l-0.2,0c-1.9,0.3-3.9,0.6-6.2,0.8c-0.3,0-0.5,0-0.8,0.1l-0.3,0c-2.2,0.2-4.3,0.3-6.2,0.3c-1.9,0-3.9-0.1-6.2-0.3l-0.3,0
	c-0.3,0-0.5,0-0.8-0.1c-2.2-0.2-4.3-0.4-6.2-0.8l-0.3,0c-4.3-0.7-8.6-1.8-12.8-3.2l-0.4-0.1c-2.1-0.7-4.2-1.5-6.1-2.3l-0.1-0.1
	c-1.7-0.7-3.5-1.6-5.5-2.6l-0.3-0.1c-0.2-0.1-0.3-0.2-0.4-0.2c-1.5-0.8-3.2-1.8-4.9-2.9c-0.5-0.3-1-0.6-1.4-0.9
	c-1.6-1.1-3.1-2.1-4.4-3.1l-2.9-2.2l3-1.7l25.4-13.8c3.7-2,6-5.9,6-10.2l0-10.8l-0.3-0.3c0,0-7.3-8.7-10-20.8L57.1,93l-0.4-0.3
	c-2.1-1.4-3.4-3.7-3.4-6.1V75.2c0-2.1,0.9-4,2.4-5.4l0.4-0.4l0-17.2c-0.1-0.9-0.8-8.9,5-15.5c5-5.7,13.5-8.7,25.1-8.7
	c11.6,0,20,2.9,25.1,8.6c5.6,6.3,5.2,14.2,5,15.5l0,17.3l0.4,0.4c1.6,1.4,2.4,3.3,2.4,5.4v11.4c0,3.2-2.1,6-5.2,7l-0.6,0.2l-0.2,0.6
	c-2,6.1-4.7,11.7-8.3,16.7c-0.9,1.2-1.7,2.3-2.5,3.2l-0.3,0.3v11.1c0,4.4,2.5,8.4,6.4,10.3l27.2,13.6c0.2,0.1,0.3,0.2,0.5,0.3
	l2.8,1.5L136.5,153.3z M141.8,148.9l-1.2,1l-1.3-0.9c-0.9-0.6-1.8-1.2-2.6-1.6l-27.2-13.6c-3.1-1.6-5.1-4.7-5.1-8.2v-10.2l0.4-0.6
	c0.6-0.7,1.2-1.6,1.9-2.5c3.4-4.8,6.1-10.2,8.1-15.9l0.3-0.8l0.8-0.4c3.4-1.6,5.5-5,5.5-8.7V75.2c0-2.3-0.8-4.5-2.4-6.3l-0.5-0.6
	l0-15.9c0.2-1.6,0.7-10.2-5.6-17.3c-5.5-6.3-14.6-9.5-26.9-9.5c-12.4,0-21.4,3.2-26.9,9.5c-6.2,7.1-5.7,15.7-5.6,17.3l0,0.2v15.7
	l-0.5,0.6c-1.5,1.8-2.4,4-2.4,6.3v11.4c0,2.9,1.3,5.6,3.6,7.5l0.5,0.4l0.2,0.6c2.5,9.7,7.5,17.1,9.6,19.8l0.4,0.5v10
	c0,3.3-1.8,6.4-4.8,8L35,147.3c-0.7,0.4-1.4,0.8-2.2,1.4l-1.3,0.9l-1.2-1.1C12.6,132.7,2.4,110,2.4,86.2C2.4,40,40,2.4,86.2,2.4
	c46.2,0,83.8,37.6,83.8,83.8C170.1,110.1,159.8,133,141.8,148.9z"/>
</svg>
