<?xml version="1.0" encoding="utf-8"?>
<!-- Generator: Adobe Illustrator 19.1.0, SVG Export Plug-In . SVG Version: 6.00 Build 0)  -->
<svg version="1.1" id="Capa_1" xmlns="http://www.w3.org/2000/svg" xmlns:xlink="http://www.w3.org/1999/xlink" x="0px" y="0px"
	 viewBox="0 0 77 95.8" style="enable-background:new 0 0 77 95.8;" xml:space="preserve">
<style type="text/css">
	.st0{fill:#202020;}
	.st1{fill:#FFFFFF;}
	.st2{fill:#FFFF3C;}
	.st3{fill:none;stroke:#E3CD48;stroke-miterlimit:10;}
	.st4{fill:#E3CD48;}
	.st5{fill:#5B5915;}
	.st6{fill:#46301D;}
	.st7{fill:#7D5D2C;}
	.st8{fill:#B08C3E;}
	.st9{fill:#DCAD43;}
	.st10{fill:none;stroke:#000000;stroke-miterlimit:10;}
</style>
<g>
	<path class="st1" d="M62.5,39.7H22.4c-0.9,0-1.6,0.7-1.6,1.6c0,0.9,0.7,1.6,1.6,1.6h40.1c0.9,0,1.6-0.7,1.6-1.6
		C64.1,40.4,63.4,39.7,62.5,39.7"/>
	<path class="st0" d="M62.5,39.7H22.4c-0.9,0-1.6,0.7-1.6,1.6c0,0.9,0.7,1.6,1.6,1.6h40.1c0.9,0,1.6-0.7,1.6-1.6
		C64.1,40.4,63.4,39.7,62.5,39.7z"/>
	<path class="st1" d="M22.4,30.1h16c0.9,0,1.6-0.7,1.6-1.6c0-0.9-0.7-1.6-1.6-1.6h-16c-0.9,0-1.6,0.7-1.6,1.6
		C20.8,29.4,21.6,30.1,22.4,30.1"/>
	<path class="st0" d="M22.4,30.1h16c0.9,0,1.6-0.7,1.6-1.6c0-0.9-0.7-1.6-1.6-1.6h-16c-0.9,0-1.6,0.7-1.6,1.6
		C20.8,29.4,21.6,30.1,22.4,30.1z"/>
	<path class="st1" d="M62.5,52.5H22.4c-0.9,0-1.6,0.7-1.6,1.6c0,0.9,0.7,1.6,1.6,1.6h40.1c0.9,0,1.6-0.7,1.6-1.6
		C64.1,53.3,63.4,52.5,62.5,52.5"/>
	<path class="st0" d="M62.5,52.5H22.4c-0.9,0-1.6,0.7-1.6,1.6c0,0.9,0.7,1.6,1.6,1.6h40.1c0.9,0,1.6-0.7,1.6-1.6
		C64.1,53.3,63.4,52.5,62.5,52.5z"/>
	<path class="st1" d="M62.5,65.4H22.4c-0.9,0-1.6,0.7-1.6,1.6c0,0.9,0.7,1.6,1.6,1.6h40.1c0.9,0,1.6-0.7,1.6-1.6
		C64.1,66.1,63.4,65.4,62.5,65.4"/>
	<path class="st0" d="M62.5,65.4H22.4c-0.9,0-1.6,0.7-1.6,1.6c0,0.9,0.7,1.6,1.6,1.6h40.1c0.9,0,1.6-0.7,1.6-1.6
		C64.1,66.1,63.4,65.4,62.5,65.4z"/>
	<path class="st2" d="M62.5,78.2H22.4c-0.9,0-1.6,0.7-1.6,1.6c0,0.9,0.7,1.6,1.6,1.6h40.1c0.9,0,1.6-0.7,1.6-1.6
		C64.1,78.9,63.4,78.2,62.5,78.2"/>
	<path class="st0" d="M62.5,78.2H22.4c-0.9,0-1.6,0.7-1.6,1.6c0,0.9,0.7,1.6,1.6,1.6h40.1c0.9,0,1.6-0.7,1.6-1.6
		C64.1,78.9,63.4,78.2,62.5,78.2z"/>
	<path class="st0" d="M68.9,23V-0.4H0v88.2h8v8H77V31L68.9,23z M54.5,13.1l14.4,14.4l2.5,2.5h-17V13.1z M3.2,84.6V2.8h62.5v17
		L53.6,7.6H8v77H3.2z M11.2,92.6v-4.8v-77h40.1v22.4h22.4v59.3H11.2z"/>
</g>
</svg>
