<?xml version="1.0" encoding="utf-8"?>
<!-- Generator: Adobe Illustrator 19.1.0, SVG Export Plug-In . SVG Version: 6.00 Build 0)  -->
<svg version="1.1" id="Capa_1" xmlns="http://www.w3.org/2000/svg" xmlns:xlink="http://www.w3.org/1999/xlink" x="0px" y="0px"
	 viewBox="0 0 73.8 95.8" style="enable-background:new 0 0 73.8 95.8;" xml:space="preserve">
<style type="text/css">
	.st0{fill:#202020;}
	.st1{fill:#FFFFFF;}
	.st2{fill:#FFFF3C;}
	.st3{fill:none;stroke:#E3CD48;stroke-miterlimit:10;}
	.st4{fill:#E3CD48;}
	.st5{fill:#5B5915;}
	.st6{fill:#46301D;}
	.st7{fill:#7D5D2C;}
	.st8{fill:#B08C3E;}
	.st9{fill:#DCAD43;}
	.st10{fill:none;stroke:#000000;stroke-miterlimit:10;}
</style>
<g>
	<path class="st0" d="M57,38.7V19.6C57,8.9,47.6,0.1,36,0.1c-11.6,0-21,8.7-21,19.4v19.1H0v43.6v13.4h73.8V82.3V38.7H57z M18.4,19.6
		c0-8.9,7.9-16.1,17.6-16.1c9.7,0,17.6,7.2,17.6,16.1v19.1H18.4V19.6z M70.4,92.3h-67v-6.7h67V92.3z M3.4,82.3V42h11.7H57h13.4v40.2
		H3.4z"/>
	<path class="st0" d="M35.3,54c-3.5,0-6.4,2.9-6.4,6.4V70c0,3.5,2.9,6.4,6.4,6.4c3.5,0,6.4-2.9,6.4-6.4v-9.6
		C41.7,56.9,38.8,54,35.3,54 M38.5,70c0,1.8-1.4,3.2-3.2,3.2s-3.2-1.4-3.2-3.2v-9.6c0-1.8,1.4-3.2,3.2-3.2s3.2,1.4,3.2,3.2V70z"/>
</g>
</svg>
