<?xml version="1.0" encoding="utf-8"?>
<!-- Generator: Adobe Illustrator 20.1.0, SVG Export Plug-In . SVG Version: 6.00 Build 0)  -->
<svg version="1.1" id="Capa_1" xmlns="http://www.w3.org/2000/svg" xmlns:xlink="http://www.w3.org/1999/xlink" x="0px" y="0px"
	 viewBox="0 0 249.2 47.7" style="enable-background:new 0 0 249.2 47.7;" xml:space="preserve">
<style type="text/css">
	.st0{fill:#FFFFFF;}
	.st1{fill:#E3CD48;}
	.st2{fill:#46301D;}
	.st3{fill:#7D5D2C;}
	.st4{fill:#B08C3E;}
	.st5{fill:#DCAD43;}
</style>
<g>
	<path class="st0" d="M64.7,34.7c-1.2,0-2.2,0-3.1,0c-2.1,0-4.3,0-6.4,0c-0.5,0-0.9-0.1-1.2-0.6c-1.6-2.2-3.3-4.4-4.9-6.7
		c-0.3-0.5-0.7-0.7-1.3-0.7c-1.4,0-2.8,0-4.1,0c-0.7,0-1,0.2-1,1c0,2,0,4,0,6c0,0.7-0.1,1-0.9,1c-2.5,0-5,0-7.6,0
		c0-11.4,0-22.8,0-34.2c0.3,0,0.5-0.1,0.8-0.1c5.4,0,10.7,0,16.1,0c2.2,0,4.3,0.5,6.3,1.5c3.4,1.6,5.3,4.4,6,8c0.7,3.4,0.4,6.8-1,10
		c-0.9,2-2.3,3.5-4.2,4.6c-0.2,0.1-0.5,0.3-0.7,0.4c-0.1,0-0.1,0.1-0.2,0.3C59.6,28.3,62,31.4,64.7,34.7z M42.6,19.8
		c2,0,3.9,0.1,5.8,0c3.5-0.2,6.4-2.2,6.1-6.6c-0.2-2.9-1.9-5-4.8-5.3c-2.1-0.2-4.2-0.1-6.2-0.2c-0.7,0-1,0.2-1,0.9
		c0,3.5,0,6.9,0,10.4C42.6,19.2,42.6,19.5,42.6,19.8z"/>
	<path class="st1" d="M187.6,26.9c0,2.4,0,4.7,0,6.9c0,0.7-0.2,1-0.9,0.9c-2.3,0-4.5,0-6.8,0c-0.6,0-0.9-0.1-0.9-0.9
		c0-10.9,0-21.7,0-32.6c0-0.7,0.3-0.9,0.9-0.9c5.4,0,10.7-0.1,16.1,0.1c3.9,0.1,7.4,1.2,10,4.4c1.6,1.9,2.3,4.2,2.5,6.7
		c0.3,3.5-0.1,6.9-2.2,9.8c-0.9,1.2-2.2,2.1-3.3,3.1c-0.3,0.2-0.6,0.4-1,0.6c2.5,3.1,5,6.2,7.5,9.5c-0.4,0-0.7,0.1-0.9,0.1
		c-2.9,0-5.7,0-8.6,0c-0.5,0-0.9-0.2-1.2-0.6c-1.6-2.2-3.3-4.4-4.9-6.6c-0.4-0.5-0.8-0.7-1.5-0.7c-1.3,0.1-2.6,0-4,0
		C188.3,26.8,188,26.9,187.6,26.9z M187.7,20c2.6-0.2,5.1-0.1,7.5-0.5c2.9-0.5,4.5-2.9,4.4-6s-1.8-5.2-4.8-5.6
		c-2.2-0.2-4.4-0.1-6.6-0.2c-0.7,0-0.5,0.5-0.5,0.9c0,3.4,0,6.9,0,10.3C187.6,19.2,187.6,19.4,187.7,20z"/>
	<path class="st1" d="M249.1,17.7c0,3.5-1.1,7-3.2,9.9c-1.9,2.6-4.4,4.7-7.3,6c-0.9,0.4-1.8,0.7-2.8,0.9c-7.3,1.8-13.7,0.1-18.8-5.4
		c-3.7-3.9-5-8.7-4.3-14c1.6-10.7,12.8-17.2,22.9-14.4c2.8,0.8,5.4,2,7.6,3.9c2.6,2.2,4.4,5.3,5.3,8.6
		C248.8,14.6,249,16.2,249.1,17.7z M230.8,8c-5.2,0-9.5,4.3-9.5,9.6c0,5.4,4.2,9.7,9.5,9.7c5.2,0,9.4-4.3,9.5-9.6
		C240.3,12.4,236,8,230.8,8z"/>
	<path class="st1" d="M173.6,17.4c0,4.7-1.9,9.4-5.3,12.7c-2.2,2.1-4.9,3.7-7.9,4.4c-7.3,1.8-13.8,0.1-18.9-5.5
		c-3.6-3.9-5-8.6-4.2-13.9c1.5-10.7,12.8-17.2,22.9-14.4c5.6,1.6,10.1,5.3,12.3,10.8C173.2,13.4,173.6,15.4,173.6,17.4z M145.9,17.6
		c0,5.4,4.2,9.7,9.5,9.7c5.2,0,9.4-4.3,9.4-9.6s-4.3-9.6-9.5-9.6C150.2,8,145.9,12.3,145.9,17.6z"/>
	<path class="st0" d="M117.6,27.4c0.6,0,0.9,0,1.3,0c5,0,10,0,15,0c0.8,0,1.1,0.2,1,1c-0.1,2,0,4.1,0,6.3c-0.4,0-0.7,0-0.9,0
		c-9.3,0-18.5,0-27.8,0c-0.9,0-1-0.3-1.1-1.1c-0.2-1.8,0.4-3.2,1.5-4.6c5.2-6.7,10.2-13.6,15.3-20.4c0.2-0.3,0.4-0.5,0.7-1
		c-0.6,0-0.9,0-1.2,0c-4.8,0-9.6,0-14.4,0c-0.9,0-1.1-0.3-1.1-1.1c0.1-2,0-4,0-6.1c0.4,0,0.8,0,1.1,0c9,0,17.9,0,26.9,0
		c0.8,0,1,0.2,1.1,1.1c0.2,2-0.5,3.5-1.7,5c-5.1,6.6-10.1,13.4-15.1,20C118,26.8,117.8,27,117.6,27.4z"/>
	<path class="st0" d="M102.7,34.7c-2.9,0-5.7,0-8.4,0c-0.3,0-0.7-0.4-0.8-0.6c-0.7-1.5-1.4-3.1-2.1-4.6c-0.2-0.5-0.5-0.8-1.2-0.8
		c-4.1,0-8.2,0-12.3,0c-0.6,0-0.9,0.2-1.2,0.8c-0.6,1.5-1.3,3-2,4.5c-0.2,0.6-0.6,0.8-1.2,0.8c-2.7,0-5.3,0-8.2,0
		c0.5-1,0.9-1.9,1.3-2.8c4.9-10.2,9.9-20.4,14.8-30.6c0.3-0.6,0.6-0.9,1.2-0.8c0.9,0.1,1.7,0.1,2.6,0c0.6,0,0.9,0.2,1.1,0.7
		c5.3,10.9,10.6,21.8,15.9,32.8C102.6,34.1,102.6,34.4,102.7,34.7z M80.2,21.5c2.6,0,5.1,0,7.7,0c-1.3-2.8-2.5-5.5-3.9-8.4
		C82.7,16,81.5,18.7,80.2,21.5z"/>
	<path class="st0" d="M0.1,7.7c0-2.5,0-4.8,0-7.3c0.4,0,0.7,0,1,0c9.1,0,18.2,0,27.3,0c0.9,0,1.2,0.2,1.1,1.1
		c-0.1,1.7-0.1,3.5,0,5.2c0,0.7-0.2,1-0.9,0.9c-2.8,0-5.6,0-8.4,0c-0.3,0-0.7,0-1.2,0c0,4.5,0,9,0,13.5s0,8.9,0,13.5
		c-1,0-1.8,0-2.7,0c-1.6,0-3.3,0-4.9,0c-0.9,0-1.1-0.2-1.1-1.1c0-8.3,0-16.5,0-24.8c0-0.4,0-0.7,0-1.2C7,7.7,3.6,7.7,0.1,7.7z"/>
	<g>
		<rect x="0.2" y="39.2" class="st2" width="49.8" height="8.6"/>
		<rect x="50.1" y="39.2" class="st3" width="49.8" height="8.6"/>
		<rect x="99.9" y="39.2" class="st4" width="49.8" height="8.6"/>
		<rect x="149.7" y="39.2" class="st5" width="49.8" height="8.6"/>
		<rect x="199.3" y="39.2" class="st1" width="49.8" height="8.6"/>
	</g>
</g>
</svg>
